<svg xmlns="http://www.w3.org/2000/svg" version="1.1" xmlns:xlink="http://www.w3.org/1999/xlink" width="1004" height="1100"><svg width="1004" height="1100" viewBox="0 0 1004 1100" fill="none" xmlns="http://www.w3.org/2000/svg">
<g filter="url(#filter0_g_48_65)">
<path d="M490.511 330.026C436.83 367.149 399.364 395.786 355.486 468.439C312.883 538.978 306.017 603.345 306.017 655.368C306.017 655.368 289.409 668.594 271.239 677.411C271.239 595.409 218.115 568.957 172.034 617.453C125.954 665.949 101.611 730.315 101.611 776.166C374.613 729.434 474.895 545.175 515.55 428.761C543.462 348.835 556.647 231.961 558.029 37.3125C558.168 17.8342 573.722 2 592.93 2C612.136 2 627.653 17.8557 628.119 37.3288C632.802 233.322 676.806 323.894 730.3 315.899C812.896 303.554 868.54 217.144 874.626 178.348C824.735 168.228 779.981 182.404 731.944 202.414C714.421 209.713 694.38 200.872 688.122 182.74C681.802 164.418 689.414 144.091 706.207 134.775C740.688 115.644 767.229 101.986 804.202 88.4103C854.629 69.8938 952.006 47.8504 989.391 120.153C1026.78 192.455 980.697 294.737 855.499 428.761C687.31 608.805 631.865 766.527 627.935 1062.66C627.676 1082.14 612.136 1098 592.93 1098C573.722 1098 558.208 1082.2 557.822 1062.73C555.885 965.205 544.561 871.506 501.639 840.533C456.429 807.908 409.138 812.589 300.711 859.931C183.338 911.179 15.4891 933.115 3.45345 831.715C-7.84959 736.488 48.3447 631.832 117.349 559.258C237.825 432.553 269.427 355.721 271.161 162.5C271.25 152.761 279.024 144.842 288.628 144.842C298.232 144.842 305.996 152.789 306.173 162.527C308.656 298.895 340.378 356.711 392.96 324.716C412.409 312.881 435.354 299.41 461.148 283.779C474.252 275.838 491.277 280.291 498.831 293.742C505.818 306.182 502.173 321.961 490.511 330.026Z" fill="#FF4E01"></path>
</g>
<defs>
<filter id="SvgjsFilter1021" x="0" y="0" width="1004" height="1100" filterUnits="userSpaceOnUse" color-interpolation-filters="sRGB">
<feFlood flood-opacity="0" result="BackgroundImageFix"></feFlood>
<feBlend mode="normal" in="SourceGraphic" in2="BackgroundImageFix" result="shape"></feBlend>
<feTurbulence type="fractalNoise" baseFrequency="0.033333335071802139 0.033333335071802139" numOctaves="3" seed="88"></feTurbulence>
<feDisplacementMap in="shape" scale="4" xChannelSelector="R" yChannelSelector="G" result="displacedImage" width="100%" height="100%"></feDisplacementMap>
<feMerge result="effect1_texture_48_65">
<feMergeNode in="displacedImage"></feMergeNode>
</feMerge>
</filter>
</defs>
</svg><style>@media (prefers-color-scheme: light) { :root { filter: none; } }
@media (prefers-color-scheme: dark) { :root { filter: none; } }
</style></svg>