<svg width="203" height="27" viewBox="0 0 203 27" fill="none" xmlns="http://www.w3.org/2000/svg">
<path d="M93.9186 2.34582C94.2734 2.34582 94.5811 2.36948 94.8413 2.41679C95.1251 2.44046 95.3263 2.58245 95.4446 2.84266C95.4919 2.96093 95.5155 3.10295 95.5155 3.26852V5.36208C95.5155 5.48031 95.5037 5.62219 95.48 5.78769C95.48 5.92961 95.4919 6.05979 95.5155 6.17806V6.56843C95.5155 6.75768 95.5274 6.93517 95.551 7.10076C95.5747 7.24267 95.6336 7.37287 95.7282 7.49113C95.8938 7.70403 96.1896 7.82211 96.6154 7.84576H98.3186C98.4605 7.84576 98.5907 7.86943 98.709 7.91674C98.9692 8.03502 99.1112 8.24801 99.1348 8.55553C99.1821 8.86306 99.2058 9.2062 99.2058 9.5847V10.0813C99.2294 10.2469 99.2176 10.3889 99.1703 10.5071C99.052 10.8856 98.8035 11.0868 98.4251 11.1104C98.0466 11.1341 97.6208 11.1459 97.1477 11.1459H96.8283C96.7337 11.1223 96.6509 11.1223 96.5799 11.1459C96.4853 11.1696 96.4025 11.1814 96.3315 11.1814C96.2605 11.1578 96.1895 11.1696 96.1186 11.2169C95.9294 11.2642 95.7873 11.3707 95.6927 11.5363C95.6218 11.6782 95.5628 11.8556 95.5155 12.0684C95.4919 12.1867 95.4919 12.3168 95.5155 12.4588C95.5392 12.6007 95.5392 12.7308 95.5155 12.8491V19.2008C95.5155 19.7922 95.5274 20.3126 95.551 20.762C95.5983 21.1878 95.752 21.5663 96.0121 21.8974C96.1304 22.0393 96.2842 22.0047 96.4735 22.0757L97.1006 22.4309C97.3321 22.5081 97.6956 22.5353 97.9282 22.5353C98.1884 22.5353 98.4132 22.5472 98.6025 22.5708C98.7917 22.5945 98.9456 22.6891 99.0638 22.8547C99.1584 22.9967 99.2058 23.186 99.2058 23.4226V23.9555C99.2058 24.4523 99.194 24.9137 99.1703 25.3395C99.1703 25.7416 98.9809 26.0136 98.6025 26.1555C98.4842 26.2028 98.3777 26.2147 98.2831 26.191C98.1885 26.191 98.082 26.2147 97.9637 26.262H97.6088C97.5615 26.262 97.4906 26.2501 97.3961 26.2265C97.3016 26.2265 97.2187 26.2383 97.1477 26.262C97.0295 26.2856 96.8993 26.2856 96.7574 26.262H96.0476C95.9293 26.2856 95.8228 26.2856 95.7282 26.262H95.3381C95.2494 26.2442 95.1539 26.2332 95.0519 26.2288L94.8435 26.2242C94.7415 26.2198 94.6461 26.2087 94.5574 26.191C94.3918 26.1673 94.238 26.1437 94.096 26.12C93.9541 26.0964 93.8121 26.0727 93.6702 26.049C93.41 25.9781 93.1617 25.8952 92.9252 25.8006C92.6886 25.706 92.4638 25.5998 92.2509 25.4815C92.1799 25.4342 92.1089 25.3868 92.038 25.3395C91.967 25.2686 91.8842 25.1976 91.7895 25.1266C91.7422 25.0793 91.6831 25.032 91.6121 24.9846C91.5412 24.9137 91.4822 24.8545 91.4349 24.8072C91.1038 24.3578 90.8553 23.861 90.6897 23.3169C90.6424 23.2223 90.6187 23.1395 90.6187 23.0685C90.6423 22.9739 90.6423 22.8674 90.6187 22.7491C90.601 22.7137 90.5899 22.6715 90.5855 22.6228L90.5809 22.5206C90.5765 22.4718 90.5655 22.4297 90.5477 22.3942V22.0394C90.5241 21.9448 90.5122 21.8382 90.5122 21.72C90.5359 21.6018 90.5477 21.4835 90.5477 21.3653V12.3523C90.5714 12.1867 90.5595 12.0329 90.5122 11.8909C90.4176 11.5598 90.2519 11.347 90.0154 11.2524C89.7552 11.1341 89.4241 11.0986 89.022 11.1459C88.8445 11.1668 88.2464 11.1704 87.6093 11.159V24.1684C87.6093 24.6415 87.5974 25.0438 87.5738 25.375C87.5501 25.7062 87.3371 25.9308 86.935 26.049C86.7931 26.0963 86.6394 26.12 86.4739 26.12C86.3083 26.0964 86.1308 26.0845 85.9416 26.0845H83.9545C83.7416 26.0845 83.5286 26.0727 83.3157 26.049C83.1265 26.0254 82.9845 25.9544 82.8899 25.8361C82.748 25.6706 82.6651 25.4696 82.6414 25.2331V8.73298C82.6414 8.49642 82.6888 8.3071 82.7834 8.16516C82.9253 7.99957 83.1265 7.89308 83.3867 7.84576C83.434 7.82213 83.4932 7.82213 83.5641 7.84576C83.6588 7.84576 83.7297 7.83393 83.7771 7.81028H86.0126C86.2018 7.78663 86.3556 7.78662 86.4739 7.81028H86.7576C86.7942 7.82249 87.3151 7.83655 88.0883 7.84451C88.7758 7.81028 89.5071 7.83024 89.767 7.81028C90.0745 7.76297 90.2875 7.62118 90.4058 7.38467C90.4767 7.21908 90.5122 7.02975 90.5122 6.81685C90.5359 6.60395 90.5477 6.39097 90.5477 6.17806V3.37498C90.5477 3.16208 90.5714 2.98459 90.6187 2.84266C90.737 2.6061 90.9145 2.45227 91.151 2.38131C91.1983 2.35769 91.2575 2.35766 91.3285 2.38131C91.423 2.3813 91.4941 2.36947 91.5414 2.34582H93.9186Z" fill="#FAF6F0"/>
<path d="M86.19 0.820068C86.4265 0.820071 86.6512 0.831908 86.864 0.855557C87.0769 0.879212 87.2426 0.950208 87.3608 1.06849C87.5264 1.25772 87.6092 1.54152 87.6093 1.91996V3.97803C87.6093 4.30922 87.5264 4.53403 87.3608 4.65231C87.2189 4.77059 87.0296 4.84159 86.793 4.86524C86.5802 4.88889 86.3437 4.90073 86.0835 4.90073H84.0965C83.8362 4.90073 83.5996 4.8889 83.3867 4.86524C83.1975 4.84158 83.0318 4.77059 82.8899 4.65231C82.7953 4.58133 82.7242 4.45115 82.6769 4.26194C82.6533 4.04909 82.6296 3.82441 82.606 3.58791V2.80717C82.6296 2.54695 82.6414 2.32214 82.6414 2.13289V1.6363C82.6651 1.47075 82.7125 1.3287 82.7834 1.21044C82.8307 1.11584 82.8899 1.04482 82.9608 0.99751C83.0554 0.950203 83.1501 0.902862 83.2447 0.855557H83.4222C83.4931 0.8319 83.5523 0.820068 83.5996 0.820068H86.19Z" fill="#FAF6F0"/>
<path d="M81.6366 16.0428C81.6839 16.1847 81.7075 16.4331 81.7075 16.7879C81.7075 17.1191 81.6957 17.3557 81.672 17.4976C81.672 17.6159 81.6602 17.7224 81.6366 17.817C81.6366 17.8879 81.6366 17.9826 81.6366 18.1009C81.5892 18.2901 81.5656 18.4793 81.5656 18.6686C81.5656 18.8342 81.5419 19.0116 81.4946 19.2009C81.4946 19.2955 81.471 19.4611 81.4237 19.6976C81.3527 19.9815 81.2817 20.2772 81.2108 20.5847C81.1634 20.8686 81.0806 21.1406 80.9624 21.4009C80.5366 22.4654 80.0043 23.388 79.3656 24.1686C78.7269 24.9492 77.8871 25.5643 76.8463 26.0138C76.6334 26.1084 76.4087 26.1794 76.1721 26.2267C75.9592 26.2976 75.7226 26.3686 75.4624 26.4396C75.3205 26.4869 75.1667 26.5105 75.0011 26.5105C74.8592 26.5105 74.7173 26.5224 74.5753 26.546H74.256C74.1141 26.5933 73.9248 26.6052 73.6883 26.5815C73.4517 26.5815 73.2625 26.5578 73.1205 26.5105H72.9076C72.7893 26.4869 72.6592 26.4632 72.5173 26.4396C72.3754 26.4396 72.2334 26.4277 72.0915 26.4041C71.642 26.2858 71.2281 26.1675 70.8496 26.0492C70.4711 25.931 70.1162 25.7654 69.7851 25.5525C69.6431 25.4578 69.5012 25.3632 69.3593 25.2686C69.241 25.174 69.1227 25.0675 69.0044 24.9492C68.9335 24.9019 68.8625 24.8546 68.7915 24.8073C68.7206 24.76 68.6496 24.7245 68.5786 24.7009C68.3657 24.6299 68.2356 24.6772 68.1883 24.8428C68.07 25.0084 67.9872 25.2095 67.9399 25.446C67.9163 25.6589 67.8335 25.8245 67.6915 25.9428C67.5496 26.0374 67.384 26.0966 67.1948 26.1202C67.0055 26.1202 66.7926 26.1202 66.5561 26.1202H64.8529C64.6873 26.1202 64.5099 26.1202 64.3206 26.1202C64.155 26.1439 64.0013 26.132 63.8593 26.0847C63.5281 25.9664 63.3389 25.7535 63.2916 25.446C63.2679 25.1148 63.2561 24.7482 63.2561 24.346V2.70084C63.2561 2.44063 63.2561 2.16859 63.2561 1.88471C63.2561 1.60084 63.3152 1.37611 63.4335 1.21052C63.5281 1.04493 63.6937 0.938477 63.9303 0.891166C63.9776 0.86751 64.0249 0.86751 64.0722 0.891166C64.1432 0.891166 64.2023 0.879338 64.2496 0.855682H66.4851C66.9109 0.855682 67.2776 0.879338 67.5851 0.926649C67.8926 0.950305 68.0937 1.12772 68.1883 1.45891C68.2593 1.69547 68.2829 2.01482 68.2593 2.41697C68.2356 2.79547 68.2238 3.12665 68.2238 3.41052V7.27827C68.2238 7.53848 68.2238 7.7987 68.2238 8.05891C68.2238 8.31913 68.2474 8.54386 68.2948 8.73311C68.3184 8.85139 68.3421 8.95784 68.3657 9.05246C68.3894 9.12343 68.4485 9.17074 68.5431 9.1944C68.5905 9.24171 68.6496 9.26536 68.7206 9.26536C68.8152 9.26536 68.8862 9.25354 68.9335 9.22988C69.0991 9.13526 69.2528 9.04063 69.3948 8.94601C69.5367 8.82773 69.6904 8.70945 69.856 8.59117C70.1636 8.37827 70.4829 8.20085 70.8141 8.05891C71.1453 7.89332 71.5119 7.75138 71.9141 7.6331C72.1033 7.56214 72.2926 7.52665 72.4818 7.52665C72.6711 7.503 72.8603 7.46751 73.0496 7.4202C73.2151 7.37289 73.3926 7.34923 73.5818 7.34923C73.771 7.34923 73.9603 7.34923 74.1495 7.34923H74.5044C74.5753 7.37289 74.6581 7.38472 74.7528 7.38472C74.8474 7.36106 74.942 7.36106 75.0366 7.38472C75.2968 7.45569 75.5334 7.51483 75.7463 7.56214C75.9828 7.58579 76.2076 7.64493 76.4205 7.73956C77.5086 8.18902 78.3957 8.76859 79.0817 9.47827C79.7678 10.1879 80.3473 11.075 80.8204 12.1396C80.9387 12.4234 81.0333 12.7191 81.1043 13.0267C81.1989 13.3342 81.2936 13.6535 81.3882 13.9847C81.4355 14.1503 81.4591 14.3159 81.4591 14.4815C81.4828 14.6234 81.5183 14.789 81.5656 14.9783C81.6129 15.0966 81.6247 15.2267 81.6011 15.3686C81.6011 15.5105 81.6129 15.6525 81.6366 15.7944V16.0428ZM76.385 19.3783C76.456 19.1417 76.5151 18.846 76.5624 18.4912C76.6334 18.1363 76.6689 17.7815 76.6689 17.4267C76.6925 17.0482 76.6925 16.6815 76.6689 16.3267C76.6689 15.9482 76.6334 15.6288 76.5624 15.3686C76.4915 15.132 76.4441 14.9073 76.4205 14.6944C76.3968 14.4815 76.3377 14.2804 76.2431 14.0912C75.9119 13.2632 75.4388 12.5654 74.8237 11.9976C74.2323 11.4062 73.3571 11.1105 72.1979 11.1105C72.1033 11.1105 72.0205 11.1224 71.9496 11.146C71.8786 11.146 71.7958 11.146 71.7012 11.146C71.5356 11.1933 71.3818 11.2406 71.2399 11.2879C71.098 11.3116 70.956 11.3471 70.8141 11.3944C70.1281 11.7019 69.6077 12.1396 69.2528 12.7073C68.898 13.2514 68.6023 13.8783 68.3657 14.5879C68.2948 14.7772 68.2474 14.9783 68.2238 15.1912C68.2238 15.3804 68.2001 15.5697 68.1528 15.7589C68.1292 15.8299 68.1173 15.9482 68.1173 16.1138C68.0937 16.2084 68.0819 16.303 68.0819 16.3976C68.1055 16.4922 68.1055 16.5869 68.0819 16.6815C68.0345 16.8707 68.0227 17.131 68.0464 17.4621C68.07 17.7933 68.1055 18.0299 68.1528 18.1718C68.2001 18.3847 68.2238 18.5858 68.2238 18.775C68.2474 18.9643 68.2948 19.1535 68.3657 19.3428C68.5786 20.0052 68.827 20.5847 69.1109 21.0815C69.4184 21.5546 69.8442 21.9568 70.3883 22.288C70.7668 22.5245 71.1571 22.6901 71.5592 22.7847C71.6066 22.7847 71.6539 22.7966 71.7012 22.8202C71.7721 22.8202 71.8431 22.8202 71.9141 22.8202C71.985 22.8439 72.1033 22.8675 72.2689 22.8912C72.4345 22.8912 72.5764 22.8793 72.6947 22.8557C72.9313 22.8084 73.1442 22.7729 73.3334 22.7492C73.5463 22.7019 73.7474 22.6428 73.9366 22.5718C74.599 22.2643 75.1076 21.8385 75.4624 21.2944C75.8409 20.7503 76.1484 20.1116 76.385 19.3783Z" fill="#FAF6F0"/>
<path d="M62.0382 7.42008C62.2511 7.46739 62.4167 7.57385 62.535 7.73944C62.6769 7.92868 62.7479 8.25987 62.7479 8.73299C62.7479 9.18245 62.7479 9.5846 62.7479 9.93944C62.7479 10.1997 62.7479 10.4954 62.7479 10.8265C62.7716 11.1577 62.7361 11.4179 62.6415 11.6072C62.5468 11.7728 62.4049 11.8792 62.2157 11.9265C62.0039 11.987 61.5638 11.9188 61.2097 11.9975C61.0441 12.0448 60.8785 12.0803 60.7129 12.104C60.5473 12.104 60.3936 12.1276 60.2516 12.1749C59.8731 12.2932 59.4946 12.4706 59.1162 12.7072C58.7377 12.9201 58.442 13.1685 58.2291 13.4523C58.1108 13.6416 57.9807 13.8427 57.8387 14.0556C57.7205 14.2448 57.6022 14.4459 57.4839 14.6588C57.4129 14.848 57.342 15.0491 57.271 15.262C57.2237 15.4513 57.1764 15.6405 57.1291 15.8298C57.0818 15.9954 57.0581 16.1728 57.0581 16.362C57.0581 16.5276 57.0345 16.6932 56.9871 16.8588C56.9635 16.9534 56.9517 17.048 56.9517 17.1427C56.9753 17.2136 56.9753 17.2846 56.9517 17.3556V17.9233C56.9043 18.0889 56.8925 18.2782 56.9162 18.4911C56.9398 18.6803 56.9517 18.8695 56.9517 19.0588V21.3298V24.3459C56.9517 24.6534 56.9398 24.9373 56.9162 25.1975C56.8925 25.4577 56.8216 25.6706 56.7033 25.8362C56.656 25.9072 56.5732 25.9663 56.4549 26.0136C56.3603 26.0373 56.2538 26.061 56.1355 26.0846H55.9581C55.8398 26.1083 55.7097 26.1201 55.5678 26.1201C55.4259 26.1201 55.2958 26.1201 55.1775 26.1201H53.6517C53.5098 26.0964 53.356 26.0846 53.1904 26.0846C53.0485 26.0846 52.8947 26.0846 52.7291 26.0846C52.6108 26.0373 52.4926 26.0018 52.3743 25.9782C52.256 25.9308 52.1732 25.848 52.1259 25.7298C52.0313 25.6115 51.9721 25.4459 51.9485 25.233C51.9485 24.9964 51.9485 24.7599 51.9485 24.5233V22.1104V12.104V9.47815C51.9485 9.24159 51.9485 9.01686 51.9485 8.80395C51.9485 8.56739 51.9958 8.37815 52.0904 8.23621C52.2087 8.04696 52.3861 7.92868 52.6227 7.88137C52.8592 7.83406 53.1431 7.81041 53.4743 7.81041H55.2839C55.5678 7.81041 55.8162 7.83406 56.0291 7.88137C56.242 7.90503 56.4076 8.01148 56.5259 8.20073C56.5968 8.31901 56.6323 8.4846 56.6323 8.6975C56.656 8.91041 56.6796 9.12331 56.7033 9.33621C56.7269 9.52546 56.7624 9.70288 56.8097 9.86847C56.8807 10.0341 56.999 10.1169 57.1646 10.1169C57.2119 10.0695 57.2592 10.0459 57.3065 10.0459C57.3538 10.0459 57.4011 10.0222 57.4484 9.97492C57.5904 9.85664 57.7086 9.72654 57.8033 9.5846C57.9215 9.41901 58.0635 9.27707 58.2291 9.15879C58.3237 9.08783 58.4065 9.01686 58.4775 8.94589C58.5484 8.85126 58.6312 8.76847 58.7258 8.6975C58.9387 8.55557 59.1516 8.41363 59.3645 8.2717C59.6011 8.12976 59.8376 7.99965 60.0742 7.88137C60.3108 7.78675 60.5473 7.70395 60.7839 7.63299C61.2181 7.51457 61.6106 7.31317 62.0382 7.42008Z" fill="#FAF6F0"/>
<path d="M51.0498 16.2202C51.0971 16.3621 51.1207 16.5632 51.1207 16.8234C51.1207 17.0836 51.0971 17.2847 51.0498 17.4266V17.7815C51.0024 17.9707 50.9788 18.16 50.9788 18.3492C51.0024 18.5385 50.9906 18.7277 50.9433 18.917C50.896 19.0826 50.8605 19.2363 50.8369 19.3783C50.8132 19.5202 50.7895 19.674 50.7659 19.8395C50.6713 20.0998 50.5885 20.3718 50.5175 20.6557C50.4465 20.9159 50.3519 21.1643 50.2336 21.4008C49.7369 22.5363 49.0863 23.4589 48.282 24.1686C47.4777 24.8783 46.5079 25.4697 45.3724 25.9428C45.0885 26.0611 44.7928 26.1438 44.4853 26.1912C44.2014 26.2621 43.9057 26.3331 43.5982 26.4041C43.4799 26.4514 43.3498 26.475 43.2079 26.475C43.066 26.475 42.9359 26.4869 42.8176 26.5105C42.7466 26.5105 42.6638 26.5105 42.5692 26.5105C42.4982 26.5342 42.4273 26.546 42.3563 26.546C42.238 26.5697 42.0488 26.5815 41.7886 26.5815C41.5283 26.6051 41.3273 26.5933 41.1853 26.546H40.8305C40.7122 26.5223 40.5821 26.5105 40.4402 26.5105C40.3219 26.5342 40.2036 26.5223 40.0853 26.475C39.9907 26.4514 39.8961 26.4395 39.8015 26.4395C39.7305 26.4395 39.6359 26.4277 39.5176 26.4041C39.2811 26.3331 39.0445 26.274 38.8079 26.2266C38.5714 26.1793 38.3467 26.1084 38.1338 26.0137C37.8499 25.9191 37.5778 25.8245 37.3176 25.7299C37.0811 25.6352 36.8327 25.517 36.5725 25.375C35.7445 24.8783 35.0349 24.2987 34.4435 23.6363C33.8521 22.974 33.3553 22.1815 32.9532 21.2589C32.8349 21.046 32.7403 20.8213 32.6693 20.5847C32.622 20.3481 32.5628 20.0998 32.4919 19.8395C32.4446 19.7213 32.4209 19.6148 32.4209 19.5202C32.4209 19.4256 32.3973 19.3191 32.3499 19.2008C32.3026 19.0116 32.279 18.8223 32.279 18.6331C32.279 18.4202 32.2553 18.2191 32.208 18.0299C32.1844 17.9116 32.1725 17.8051 32.1725 17.7105C32.1725 17.6159 32.1725 17.5094 32.1725 17.3912C32.1252 17.2492 32.1016 17.0481 32.1016 16.7879C32.1252 16.5277 32.1607 16.3266 32.208 16.1847V15.9363C32.2317 15.818 32.2317 15.6998 32.208 15.5815C32.208 15.4395 32.2317 15.3094 32.279 15.1912C32.3026 15.0729 32.3145 14.9664 32.3145 14.8718C32.3145 14.7535 32.3381 14.6352 32.3854 14.517C32.4801 14.2094 32.5628 13.9137 32.6338 13.6299C32.7048 13.3223 32.7994 13.0266 32.9177 12.7428C33.3435 11.7729 33.8521 10.9686 34.4435 10.3299C35.0349 9.6675 35.7564 9.06427 36.608 8.52018C36.8445 8.4019 37.0929 8.29545 37.3531 8.20083C37.6133 8.10621 37.8735 7.99975 38.1338 7.88147C38.4413 7.76319 38.7606 7.6804 39.0918 7.63309C39.423 7.58577 39.766 7.51481 40.1208 7.42018C40.3101 7.39653 40.4875 7.3847 40.6531 7.3847C40.8187 7.3847 40.9843 7.37287 41.1499 7.34921C42.5219 7.32556 43.7047 7.46749 44.6982 7.77502C45.7154 8.08255 46.6143 8.50836 47.3949 9.05244C47.6552 9.24169 47.9154 9.45459 48.1756 9.69115C48.4595 9.90406 48.696 10.1406 48.8853 10.4008C49.0745 10.6374 49.2401 10.8739 49.382 11.1105C49.5476 11.3471 49.7132 11.5955 49.8788 11.8557C50.0444 12.1159 50.1745 12.3998 50.2691 12.7073C50.3637 12.9912 50.4702 13.2987 50.5885 13.6299C50.6594 13.8191 50.7186 14.0202 50.7659 14.2331C50.8132 14.446 50.8605 14.6589 50.9078 14.8718C50.9315 14.9664 50.9433 15.061 50.9433 15.1557C50.9433 15.2503 50.9551 15.3449 50.9788 15.4395C51.0261 15.5578 51.0379 15.6879 51.0143 15.8299C50.9906 15.9718 51.0024 16.1019 51.0498 16.2202ZM46.0821 17.4976C46.1057 17.3793 46.1175 17.2137 46.1175 17.0008C46.1175 16.7643 46.1057 16.5869 46.0821 16.4686V16.1847C46.0348 16.0664 46.0111 15.9363 46.0111 15.7944C46.0111 15.6524 45.9993 15.5223 45.9756 15.4041C45.9756 15.3094 45.9638 15.2385 45.9401 15.1912C45.8928 15.0019 45.8455 14.8127 45.7982 14.6234C45.7745 14.4105 45.7272 14.2094 45.6563 14.0202C45.396 13.4051 45.0885 12.8847 44.7337 12.4589C44.3789 12.0094 43.9057 11.6546 43.3143 11.3944C43.1724 11.3471 43.0305 11.3116 42.8885 11.2879C42.7466 11.2406 42.5929 11.1933 42.4273 11.146C42.238 11.0987 42.0369 11.0869 41.824 11.1105C41.6111 11.1105 41.3982 11.1105 41.1853 11.1105C41.1144 11.1578 41.0316 11.1815 40.937 11.1815C40.8423 11.1578 40.7595 11.1578 40.6886 11.1815C40.523 11.2288 40.3574 11.2761 40.1918 11.3234C40.0499 11.3471 39.9198 11.3944 39.8015 11.4653C39.2101 11.7256 38.7251 12.1041 38.3467 12.6008C37.9918 13.0739 37.708 13.6299 37.4951 14.2686C37.4241 14.5051 37.3649 14.7535 37.3176 15.0137C37.294 15.2739 37.2585 15.5342 37.2112 15.7944C37.1875 15.9127 37.1757 16.0309 37.1757 16.1492C37.1757 16.2675 37.1757 16.3858 37.1757 16.5041C37.1284 16.6696 37.1047 16.918 37.1047 17.2492C37.1284 17.5804 37.1639 17.8288 37.2112 17.9944V18.3137C37.2585 18.503 37.294 18.6922 37.3176 18.8815C37.3413 19.0471 37.3768 19.2245 37.4241 19.4137C37.6606 20.1234 37.909 20.703 38.1692 21.1524C38.4531 21.5783 38.8907 21.9686 39.4821 22.3234C39.6477 22.4417 39.8251 22.5363 40.0144 22.6073C40.2273 22.6783 40.4402 22.7374 40.6531 22.7847C40.7477 22.8084 40.8305 22.8202 40.9015 22.8202C40.9724 22.7965 41.0552 22.7965 41.1499 22.8202C41.2445 22.8438 41.3391 22.8675 41.4337 22.8912C41.552 22.8912 41.6585 22.8793 41.7531 22.8557H42.0369C42.2262 22.8084 42.4154 22.7729 42.6047 22.7492C42.7939 22.7256 42.9713 22.6783 43.1369 22.6073C43.752 22.3707 44.2487 22.0514 44.6272 21.6492C45.0057 21.2471 45.3251 20.7503 45.5853 20.1589C45.6799 19.9223 45.7509 19.6858 45.7982 19.4492C45.8455 19.2127 45.9046 18.9643 45.9756 18.7041C45.9993 18.6094 46.0111 18.5266 46.0111 18.4557C46.0111 18.361 46.0229 18.2664 46.0466 18.1718C46.0466 18.0535 46.0466 17.9471 46.0466 17.8524C46.0466 17.7342 46.0584 17.6159 46.0821 17.4976Z" fill="#FAF6F0"/>
<path d="M17.195 7.34907C18.6143 7.30176 19.7971 7.50284 20.7434 7.9523C21.6896 8.40176 22.4347 9.06413 22.9788 9.9394C23.1444 10.1996 23.2745 10.4835 23.3691 10.791C23.4638 11.0749 23.5584 11.3706 23.653 11.6781C23.7003 11.8674 23.724 12.0448 23.724 12.2104C23.7476 12.376 23.7831 12.5416 23.8304 12.7071C23.8304 12.8491 23.8422 12.9437 23.8659 12.991C23.9132 13.3222 23.9369 13.6652 23.9369 14.02C23.9369 14.3749 23.9369 14.7179 23.9369 15.0491V18.2071V23.9555C23.9369 24.405 23.925 24.8426 23.9014 25.2684C23.9014 25.6706 23.7358 25.9308 23.4046 26.0491C23.2627 26.0964 23.0971 26.1201 22.9078 26.1201C22.7186 26.1201 22.5294 26.1201 22.3401 26.1201H20.424C20.1401 26.1201 19.8799 26.1082 19.6434 26.0846C19.4305 26.0373 19.2649 25.9308 19.1466 25.7652C19.052 25.6233 18.9928 25.4459 18.9692 25.233C18.9692 24.9964 18.9692 24.748 18.9692 24.4878V22.0039V16.7168C18.9692 15.8416 18.9337 15.0373 18.8627 14.3039C18.7918 13.5469 18.5789 12.9082 18.224 12.3878C17.8928 11.9147 17.4079 11.5835 16.7692 11.3942C16.6509 11.3469 16.5208 11.3233 16.3789 11.3233C16.2606 11.3233 16.1305 11.2996 15.9886 11.2523C15.8703 11.2286 15.7165 11.2286 15.5273 11.2523C15.3617 11.2523 15.2316 11.2641 15.137 11.2878C15.0423 11.3114 14.9595 11.3233 14.8886 11.3233C14.8176 11.3233 14.7466 11.3351 14.6757 11.3588C14.1316 11.5007 13.694 11.6899 13.3628 11.9265C12.6058 12.4706 12.1563 13.2631 12.0144 14.3039C11.8725 15.3448 11.8015 16.5157 11.8015 17.8168V22.2523V24.4168C11.8015 24.6297 11.8015 24.8426 11.8015 25.0555C11.8015 25.2684 11.766 25.4459 11.6951 25.5878C11.5768 25.848 11.3875 26.0018 11.1273 26.0491C10.8671 26.0964 10.5478 26.1201 10.1693 26.1201H8.3951C8.13488 26.1201 7.87467 26.1082 7.61446 26.0846C7.35425 26.0609 7.165 25.9781 7.04672 25.8362C6.88113 25.6233 6.79834 25.3158 6.79834 24.9136C6.822 24.5114 6.83382 24.133 6.83382 23.7781V18.9523V11.1459V9.33617C6.83382 9.07596 6.83382 8.8394 6.83382 8.62649C6.85748 8.41359 6.92845 8.23617 7.04672 8.09424C7.09404 8.02327 7.165 7.97596 7.25963 7.9523C7.3779 7.90499 7.49618 7.86951 7.61446 7.84585H7.79188C7.91016 7.82219 8.02843 7.81037 8.14671 7.81037C8.28865 7.81037 8.41875 7.81037 8.53703 7.81037H10.0273C10.2166 7.81037 10.394 7.82219 10.5596 7.84585C10.7488 7.84585 10.9144 7.86951 11.0564 7.91682C11.2219 7.98778 11.3284 8.09424 11.3757 8.23617C11.4467 8.37811 11.5058 8.5437 11.5531 8.73295C11.5768 8.82757 11.5768 8.91037 11.5531 8.98133C11.5531 9.0523 11.5768 9.12327 11.6241 9.19424C11.6714 9.31252 11.7069 9.38348 11.7305 9.40714C11.7779 9.4308 11.837 9.46628 11.908 9.51359C12.1682 9.53725 12.3811 9.45445 12.5467 9.26521C12.7123 9.0523 12.8897 8.88671 13.0789 8.76843C13.7176 8.29531 14.4273 7.91682 15.2079 7.63295C15.4208 7.56198 15.6337 7.51467 15.8466 7.49101C16.0832 7.46736 16.3316 7.43187 16.5918 7.38456C16.6628 7.3609 16.7692 7.3609 16.9111 7.38456C17.0531 7.38456 17.1477 7.37273 17.195 7.34907Z" fill="#FAF6F0"/>
<path d="M5.03091 1.06846C5.1965 1.2577 5.2793 1.54158 5.2793 1.92007C5.2793 2.29857 5.2793 2.66523 5.2793 3.02007C5.2793 3.3276 5.2793 3.64695 5.2793 3.97814C5.2793 4.30932 5.1965 4.53405 5.03091 4.65233C4.88898 4.77061 4.69973 4.84158 4.46318 4.86523C4.25028 4.88889 4.01372 4.90072 3.75351 4.90072H1.76643C1.50622 4.90072 1.26966 4.88889 1.05676 4.86523C0.867515 4.84158 0.701925 4.77061 0.559991 4.65233C0.465368 4.58136 0.394401 4.45125 0.34709 4.26201C0.323434 4.0491 0.299779 3.82437 0.276123 3.58781C0.276123 3.3276 0.276123 3.06738 0.276123 2.80717C0.299779 2.54695 0.311607 2.32222 0.311607 2.13297C0.311607 1.94373 0.311607 1.77813 0.311607 1.6362C0.335262 1.47061 0.382574 1.32867 0.453541 1.21039C0.500852 1.11577 0.559991 1.0448 0.630958 0.99749C0.725581 0.950177 0.820203 0.902865 0.914826 0.855554C0.962137 0.855554 1.02128 0.855554 1.09224 0.855554C1.16321 0.831897 1.22235 0.820068 1.26966 0.820068H3.85996C4.09651 0.820068 4.32124 0.831897 4.53414 0.855554C4.74704 0.87921 4.91263 0.950177 5.03091 1.06846ZM5.2793 24.1685C5.2793 24.6416 5.26747 25.0437 5.24381 25.3749C5.22016 25.7061 5.00726 25.9308 4.60511 26.0491C4.46318 26.0964 4.30941 26.1201 4.14382 26.1201C3.97824 26.0964 3.80082 26.0846 3.61157 26.0846H1.6245C1.41159 26.0846 1.19869 26.0728 0.985793 26.0491C0.796548 26.0255 0.654614 25.9545 0.559991 25.8362C0.418057 25.6706 0.335262 25.4695 0.311607 25.233C0.311607 24.9728 0.311607 24.7007 0.311607 24.4169V9.44265C0.311607 9.2061 0.311607 8.96954 0.311607 8.73298C0.311607 8.49642 0.358918 8.30717 0.453541 8.16523C0.595475 7.99964 0.796548 7.89319 1.05676 7.84588C1.10407 7.82222 1.16321 7.82222 1.23418 7.84588C1.3288 7.84588 1.39977 7.83405 1.44708 7.8104H3.22125C3.36319 7.8104 3.51695 7.8104 3.68254 7.8104C3.87178 7.78674 4.02555 7.78674 4.14382 7.8104H4.42769C4.56963 7.85771 4.69973 7.89319 4.81801 7.91685C4.93629 7.9405 5.03091 8.01147 5.10188 8.12975C5.1965 8.24803 5.24381 8.41362 5.24381 8.62652C5.26747 8.83943 5.2793 9.06416 5.2793 9.30072V24.1685Z" fill="#FAF6F0"/>
<path d="M107.525 8.5338C106.263 9.40677 105.382 10.0802 104.35 11.7887C103.348 13.4474 103.187 14.9611 103.187 16.1844C103.187 16.1844 102.796 16.4954 102.369 16.7028C102.369 14.7745 101.12 14.1524 100.036 15.2928C98.9524 16.4332 98.38 17.9469 98.38 19.0251C104.8 17.9261 107.158 13.5932 108.114 10.8556C108.77 8.97611 109.08 6.22774 109.113 1.65046C109.116 1.19242 109.482 0.820068 109.934 0.820068C110.385 0.820068 110.75 1.19292 110.761 1.65085C110.871 6.25975 111.906 8.38961 113.164 8.20159C115.106 7.9113 116.415 5.87931 116.558 4.96699C115.385 4.72903 114.332 5.06237 113.202 5.53292C112.79 5.70456 112.319 5.49668 112.172 5.07029C112.023 4.63944 112.202 4.16142 112.597 3.94235C113.408 3.49249 114.032 3.17131 114.902 2.85206C116.088 2.41663 118.377 1.89827 119.256 3.59851C120.136 5.29874 119.052 7.70396 116.108 10.8556C112.153 15.0895 110.849 18.7984 110.757 25.7622C110.751 26.2202 110.385 26.5932 109.934 26.5932C109.482 26.5932 109.117 26.2217 109.108 25.7638C109.062 23.4704 108.796 21.267 107.787 20.5387C106.724 19.7715 105.612 19.8816 103.062 20.9948C100.302 22.2 96.3548 22.7158 96.0718 20.3313C95.806 18.092 97.1274 15.631 98.7501 13.9243C101.583 10.9448 102.326 9.13805 102.367 4.59433C102.369 4.36531 102.552 4.17907 102.778 4.17907C103.004 4.17907 103.186 4.36598 103.19 4.59497C103.249 7.80174 103.995 9.16131 105.231 8.40893C105.689 8.13063 106.228 7.81385 106.835 7.44627C107.143 7.25953 107.543 7.36424 107.721 7.68057C107.885 7.97309 107.799 8.34416 107.525 8.5338Z" fill="#FF4E01"/>
<path d="M202.575 16.3534C202.622 16.4954 202.646 16.7203 202.646 17.028C202.646 17.3121 202.634 17.5133 202.61 17.6317V17.9868C202.587 18.1762 202.563 18.3537 202.539 18.5194C202.539 18.6614 202.527 18.8271 202.504 19.0165C202.456 19.1586 202.421 19.3006 202.397 19.4426C202.397 19.5847 202.373 19.7267 202.326 19.8687C202.231 20.1765 202.149 20.4842 202.078 20.792C202.007 21.0997 201.912 21.3838 201.793 21.6442C201.296 22.7804 200.634 23.7392 199.805 24.5204C198.977 25.2779 197.959 25.8578 196.751 26.2603C196.491 26.355 196.207 26.426 195.899 26.4733C195.615 26.5207 195.319 26.568 195.011 26.6154C194.869 26.639 194.716 26.6509 194.55 26.6509C194.408 26.6745 194.266 26.6864 194.124 26.6864C194.029 26.71 193.887 26.7219 193.698 26.7219C193.532 26.7219 193.414 26.71 193.343 26.6864C193.248 26.6627 193.153 26.6509 193.058 26.6509C192.964 26.6745 192.881 26.6745 192.81 26.6509H192.597L191.745 26.5443C191.413 26.4497 191.094 26.355 190.786 26.2603C190.478 26.1656 190.182 26.0591 189.898 25.9407C188.833 25.4672 187.957 24.8518 187.271 24.0943C186.584 23.3367 186.016 22.4135 185.566 21.3246C185.448 21.0879 185.353 20.8511 185.282 20.6144C185.235 20.3777 185.187 20.1291 185.14 19.8687C185.093 19.774 185.069 19.703 185.069 19.6557C185.093 19.5847 185.093 19.5018 185.069 19.4071C185.022 19.2177 184.986 19.0284 184.963 18.839C184.963 18.6259 184.939 18.4247 184.892 18.2353C184.892 18.117 184.892 18.0223 184.892 17.9513C184.892 17.8566 184.88 17.7501 184.856 17.6317C184.832 17.5133 184.821 17.3121 184.821 17.028C184.821 16.7203 184.844 16.4954 184.892 16.3534C184.939 16.1877 184.951 16.022 184.927 15.8563C184.903 15.6906 184.915 15.5248 184.963 15.3591C184.986 15.2408 184.998 15.1461 184.998 15.0751C185.022 14.9804 185.045 14.8739 185.069 14.7555C185.14 14.4714 185.199 14.1874 185.247 13.9033C185.318 13.6192 185.412 13.347 185.531 13.0866C185.886 12.2107 186.312 11.4295 186.809 10.743C187.33 10.0329 187.957 9.44104 188.691 8.96759C188.975 8.77821 189.271 8.62434 189.579 8.50598C189.886 8.36395 190.206 8.22191 190.537 8.07988C190.821 7.96151 191.129 7.8905 191.461 7.86682C191.792 7.81948 192.123 7.74846 192.455 7.65377C192.621 7.65377 192.774 7.65377 192.916 7.65377C193.082 7.6301 193.236 7.60643 193.378 7.58276C195.485 7.55909 197.237 7.99702 198.633 8.89657C200.03 9.79613 201.036 10.9679 201.651 12.4119C201.77 12.6486 201.865 12.8854 201.936 13.1221C202.007 13.3588 202.089 13.6074 202.184 13.8678C202.255 14.1282 202.314 14.4122 202.362 14.72C202.409 15.0041 202.468 15.3 202.539 15.6077C202.563 15.7261 202.563 15.8563 202.539 15.9983C202.539 16.1167 202.551 16.235 202.575 16.3534ZM199.414 18.3774C199.462 18.2117 199.474 18.0223 199.45 17.8092C199.45 17.5962 199.45 17.395 199.45 17.2056C199.45 16.2824 199.367 15.5012 199.201 14.862C199.13 14.6726 199.071 14.4833 199.024 14.2939C198.977 14.1045 198.917 13.927 198.846 13.7613C198.183 12.2225 197.13 11.1573 195.686 10.5655C195.52 10.4945 195.343 10.4471 195.153 10.4234C194.964 10.3761 194.775 10.3288 194.585 10.2814C194.396 10.2341 194.195 10.2104 193.982 10.2104C193.769 10.2104 193.556 10.2104 193.343 10.2104L192.703 10.3169C192.467 10.3643 192.242 10.4234 192.029 10.4945C191.839 10.5418 191.65 10.6128 191.461 10.7075C191.295 10.7549 191.141 10.8259 190.999 10.9206C190.857 11.0153 190.727 11.1099 190.608 11.2046C190.04 11.6071 189.579 12.0923 189.224 12.6605C188.868 13.2286 188.561 13.8914 188.3 14.649C188.229 14.8857 188.182 15.1343 188.158 15.3946C188.135 15.6314 188.099 15.8799 188.052 16.1403C188.028 16.235 188.016 16.3889 188.016 16.6019C187.993 16.673 187.981 16.7558 187.981 16.8505C188.004 16.9452 188.016 17.0517 188.016 17.1701C188.016 17.4068 188.016 17.6435 188.016 17.8802C188.016 18.117 188.04 18.33 188.087 18.5194L188.158 18.9455C188.206 19.1822 188.241 19.419 188.265 19.6557C188.312 19.8687 188.383 20.0699 188.478 20.2593C188.715 20.8275 188.987 21.3601 189.295 21.8572C189.626 22.3543 190.028 22.7686 190.502 23.1C190.62 23.171 190.727 23.2302 190.821 23.2776C190.916 23.3249 191.023 23.3841 191.141 23.4551C191.33 23.5735 191.532 23.68 191.745 23.7747C191.981 23.8457 192.23 23.9167 192.49 23.9877C192.609 24.0351 192.715 24.0587 192.81 24.0587C192.928 24.0351 193.047 24.0351 193.165 24.0587C193.236 24.0824 193.378 24.1061 193.591 24.1298C193.828 24.1534 194.005 24.1416 194.124 24.0943C194.218 24.0706 194.313 24.0706 194.408 24.0943C194.502 24.0943 194.597 24.0706 194.692 24.0232C194.881 23.9759 195.071 23.9404 195.26 23.9167C195.449 23.8694 195.627 23.8102 195.793 23.7392C196.597 23.4078 197.248 22.9461 197.746 22.3543C198.243 21.7625 198.657 21.0642 198.988 20.2593C199.107 19.9753 199.178 19.6794 199.201 19.3716C199.249 19.0402 199.32 18.7088 199.414 18.3774Z" fill="#FAF6F0"/>
<path d="M180.997 4.45843C180.808 4.3164 180.701 4.06784 180.677 3.71275C180.677 3.33399 180.677 2.96707 180.677 2.61199C180.677 2.42261 180.677 2.22139 180.677 2.00834C180.677 1.79529 180.713 1.61775 180.784 1.47571C180.879 1.28633 181.068 1.1443 181.352 1.04961C181.399 1.02594 181.447 1.02594 181.494 1.04961C181.565 1.04961 181.624 1.03777 181.672 1.0141C182.074 1.0141 182.453 1.02594 182.808 1.04961C183.163 1.07328 183.4 1.21532 183.518 1.47571C183.589 1.61775 183.625 1.79529 183.625 2.00834C183.625 2.19772 183.625 2.39893 183.625 2.61199C183.625 3.03809 183.613 3.44052 183.589 3.81928C183.589 4.19804 183.435 4.4466 183.128 4.56496C183.009 4.6123 182.879 4.63598 182.737 4.63598C182.619 4.63598 182.488 4.63598 182.346 4.63598C182.086 4.63598 181.837 4.63598 181.601 4.63598C181.364 4.63598 181.163 4.5768 180.997 4.45843ZM183.625 24.5918C183.625 24.8285 183.625 25.0771 183.625 25.3375C183.648 25.5742 183.601 25.7636 183.483 25.9056C183.412 26.0477 183.305 26.1423 183.163 26.1897C183.021 26.2134 182.855 26.2489 182.666 26.2962H182.133C181.826 26.2962 181.553 26.2844 181.317 26.2607C181.104 26.2134 180.938 26.095 180.82 25.9056C180.725 25.7636 180.677 25.586 180.677 25.373C180.677 25.1363 180.677 24.9114 180.677 24.6983V9.6782C180.677 9.4178 180.677 9.16924 180.677 8.93252C180.677 8.67212 180.737 8.4709 180.855 8.32887C180.926 8.21051 181.021 8.13949 181.139 8.11582C181.257 8.09215 181.388 8.05664 181.53 8.00929C181.577 8.00929 181.624 8.02113 181.672 8.0448C181.743 8.0448 181.802 8.03296 181.849 8.00929C182.157 8.00929 182.465 8.02113 182.772 8.0448C183.104 8.0448 183.329 8.13949 183.447 8.32887C183.565 8.4709 183.625 8.66028 183.625 8.89701C183.625 9.11006 183.625 9.33495 183.625 9.57167V24.5918Z" fill="#FAF6F0"/>
<path d="M178.235 24.3784C178.235 24.6861 178.235 24.9939 178.235 25.3016C178.235 25.5857 178.176 25.8224 178.058 26.0118C177.939 26.1775 177.738 26.2722 177.454 26.2959C177.194 26.2959 176.922 26.2959 176.637 26.2959C176.495 26.2959 176.353 26.3077 176.211 26.3314C176.093 26.3314 175.986 26.3077 175.892 26.2603C175.679 26.213 175.537 26.1183 175.466 25.9763C175.371 25.8579 175.312 25.7159 175.288 25.5502C175.288 25.3845 175.253 25.2188 175.182 25.0531C175.158 25.0057 175.122 24.9702 175.075 24.9465C175.051 24.8992 175.016 24.8518 174.969 24.8045C174.732 24.7808 174.542 24.8282 174.4 24.9465C174.282 25.0649 174.152 25.1832 174.01 25.3016C173.536 25.6567 173.063 25.9289 172.59 26.1183C172.163 26.3077 171.666 26.4497 171.098 26.5444C170.554 26.6391 169.986 26.6864 169.394 26.6864C168.826 26.7101 168.258 26.6746 167.689 26.5799C167.121 26.5089 166.624 26.3787 166.198 26.1893C164.967 25.6685 163.973 24.9702 163.215 24.0943C162.458 23.1948 161.866 22.0822 161.44 20.7565C161.345 20.5435 161.274 20.3304 161.227 20.1174C161.203 19.8806 161.156 19.6439 161.085 19.4072C161.061 19.2888 161.049 19.1705 161.049 19.0521C161.049 18.9337 161.038 18.8154 161.014 18.697C160.967 18.5787 160.943 18.4603 160.943 18.3419C160.967 18.1999 160.967 18.0697 160.943 17.9513V17.5963C160.895 17.4779 160.872 17.324 160.872 17.1346C160.872 16.9453 160.895 16.7914 160.943 16.673V16.2824C160.99 16.1167 161.002 15.951 160.978 15.7853C160.978 15.5959 161.002 15.4184 161.049 15.2527C161.073 15.1343 161.085 15.0278 161.085 14.9331C161.085 14.8384 161.097 14.7319 161.12 14.6135C161.191 14.3768 161.251 14.1519 161.298 13.9389C161.345 13.7021 161.404 13.4773 161.475 13.2642C161.783 12.3647 162.174 11.5598 162.647 10.8496C163.144 10.1158 163.736 9.51213 164.423 9.03868C164.825 8.75461 165.239 8.51789 165.665 8.32851C166.115 8.13913 166.6 7.97342 167.121 7.83139C167.287 7.80772 167.441 7.78405 167.583 7.76037C167.749 7.7367 167.914 7.70119 168.08 7.65385H168.435C168.624 7.6065 168.897 7.58283 169.252 7.58283C169.631 7.58283 169.915 7.6065 170.104 7.65385C170.199 7.67752 170.329 7.68935 170.495 7.68935C170.755 7.76037 171.015 7.81955 171.276 7.8669C171.536 7.89057 171.785 7.96159 172.021 8.07995C172.376 8.22198 172.708 8.37585 173.016 8.54156C173.347 8.70727 173.655 8.89665 173.939 9.1097C174.081 9.22806 174.223 9.35826 174.365 9.50029C174.531 9.61865 174.744 9.65416 175.004 9.60682C175.051 9.5358 175.087 9.47662 175.111 9.42928C175.158 9.38193 175.193 9.31091 175.217 9.21622C175.288 9.00317 175.312 8.73094 175.288 8.39953C175.288 8.06811 175.288 7.77221 175.288 7.51181V3.42832C175.288 3.09691 175.288 2.72999 175.288 2.32756C175.288 1.90145 175.347 1.59371 175.466 1.40434C175.56 1.23863 175.702 1.1321 175.892 1.08476C175.939 1.08476 175.998 1.08476 176.069 1.08476C176.14 1.06109 176.2 1.04925 176.247 1.04925C176.578 1.02558 176.922 1.02558 177.277 1.04925C177.655 1.04925 177.916 1.14394 178.058 1.33332C178.176 1.5227 178.235 1.75942 178.235 2.04349C178.235 2.32756 178.235 2.62346 178.235 2.9312V24.3784ZM175.359 17.6673C175.407 17.5489 175.43 17.395 175.43 17.2057C175.43 16.9926 175.407 16.8269 175.359 16.7085V16.1759C175.312 15.9629 175.276 15.7498 175.253 15.5368C175.229 15.3 175.182 15.087 175.111 14.8976C175.063 14.7082 175.016 14.5307 174.969 14.365C174.945 14.1993 174.898 14.0336 174.827 13.8678C174.542 13.1577 174.176 12.5304 173.726 11.9859C173.276 11.4414 172.708 11.0153 172.021 10.7076C171.785 10.5892 171.536 10.5064 171.276 10.459C171.039 10.388 170.779 10.3288 170.495 10.2815C170.305 10.2341 170.092 10.2105 169.855 10.2105C169.642 10.2105 169.429 10.2105 169.216 10.2105C169.098 10.2341 168.991 10.2578 168.897 10.2815C168.802 10.2815 168.695 10.2815 168.577 10.2815C168.388 10.3288 168.187 10.3762 167.973 10.4235C167.784 10.4709 167.595 10.53 167.405 10.6011C166.648 10.9325 166.032 11.4178 165.559 12.0569C165.109 12.6724 164.742 13.3944 164.458 14.2229C164.363 14.4833 164.292 14.7556 164.245 15.0396C164.221 15.3 164.186 15.5604 164.139 15.8208C164.139 15.9155 164.127 16.0102 164.103 16.1049C164.103 16.1759 164.103 16.2588 164.103 16.3534C164.056 16.4718 164.032 16.602 164.032 16.744C164.056 16.8861 164.068 17.0163 164.068 17.1346C164.068 17.395 164.068 17.6554 164.068 17.9158C164.068 18.1526 164.091 18.3774 164.139 18.5905C164.162 18.6615 164.174 18.7799 164.174 18.9456C164.221 19.1113 164.257 19.277 164.281 19.4427C164.328 19.6084 164.375 19.7741 164.423 19.9398C164.683 20.7683 165.038 21.4785 165.488 22.0703C165.938 22.6621 166.506 23.1474 167.192 23.5262C167.405 23.6445 167.618 23.7392 167.831 23.8103C168.044 23.8813 168.281 23.9523 168.542 24.0233C168.66 24.0706 168.778 24.0825 168.897 24.0588C169.039 24.0351 169.169 24.047 169.287 24.0943C169.382 24.118 169.477 24.1298 169.571 24.1298C169.69 24.1298 169.796 24.1298 169.891 24.1298H170.21C170.282 24.1062 170.4 24.0943 170.566 24.0943C170.755 24.047 170.944 24.0115 171.134 23.9878C171.323 23.9405 171.501 23.8813 171.666 23.8103C172.448 23.4788 173.075 23.0646 173.548 22.5675C174.045 22.0467 174.46 21.3957 174.791 20.6145C174.909 20.3541 174.992 20.0937 175.04 19.8333C175.087 19.5729 175.146 19.3125 175.217 19.0521C175.264 18.9574 175.288 18.8746 175.288 18.8035C175.288 18.7089 175.3 18.6142 175.324 18.5195C175.347 18.3774 175.347 18.2354 175.324 18.0934C175.324 17.9513 175.336 17.8093 175.359 17.6673Z" fill="#FAF6F0"/>
<path d="M145.615 8.00912C145.947 8.00912 146.29 8.00912 146.645 8.00912C147 8.00912 147.249 8.10381 147.391 8.29319C147.509 8.48257 147.568 8.7193 147.568 9.00336C147.592 9.28743 147.604 9.5715 147.604 9.85557V13.2289V18.5907C147.604 19.1115 147.604 19.6559 147.604 20.2241C147.604 20.7685 147.663 21.242 147.781 21.6444C148.16 22.7097 148.87 23.4554 149.912 23.8815C150.433 24.0945 151.06 24.1774 151.794 24.13C152.528 24.059 153.119 23.9288 153.569 23.7394C154.35 23.408 154.966 22.9938 155.416 22.4966C155.889 21.9758 156.256 21.3012 156.516 20.4726C156.587 20.2833 156.635 20.0939 156.658 19.9045C156.682 19.7151 156.718 19.5139 156.765 19.3009C156.789 19.1825 156.789 19.076 156.765 18.9813C156.765 18.8866 156.789 18.7801 156.836 18.6617V17.916C156.883 17.7266 156.895 17.5136 156.871 17.2769C156.848 17.0165 156.836 16.7797 156.836 16.5667V13.797V10.0331C156.836 9.74905 156.824 9.45314 156.8 9.1454C156.8 8.81399 156.86 8.55359 156.978 8.36421C157.073 8.24585 157.179 8.17483 157.298 8.15116C157.44 8.10381 157.605 8.05647 157.795 8.00912H158.327C158.611 8.00912 158.86 8.02096 159.073 8.04463C159.31 8.06831 159.487 8.17483 159.606 8.36421C159.724 8.48257 159.783 8.66012 159.783 8.89684C159.783 9.10989 159.783 9.33478 159.783 9.5715V11.9861V21.5379V24.7337C159.783 25.0177 159.771 25.29 159.748 25.5504C159.748 25.7871 159.665 25.9646 159.499 26.083C159.404 26.154 159.262 26.2132 159.073 26.2605C158.884 26.2842 158.671 26.3079 158.434 26.3316C158.221 26.3316 158.008 26.3197 157.795 26.296C157.605 26.2724 157.463 26.225 157.369 26.154C157.25 26.0593 157.144 25.9055 157.049 25.6924C157.025 25.5977 157.002 25.4675 156.978 25.3018C156.978 25.1361 156.966 24.9822 156.942 24.8402C156.919 24.6745 156.871 24.5443 156.8 24.4496C156.729 24.3549 156.623 24.3194 156.481 24.3431C156.291 24.3904 156.102 24.5325 155.913 24.7692C155.723 24.9822 155.546 25.1479 155.38 25.2663C154.859 25.6451 154.267 25.9765 153.605 26.2605C153.344 26.3789 153.072 26.4499 152.788 26.4736C152.528 26.5209 152.255 26.5801 151.971 26.6511C151.853 26.6748 151.723 26.6748 151.581 26.6511C151.462 26.6275 151.344 26.6393 151.226 26.6866C150.989 26.734 150.776 26.734 150.586 26.6866H150.231C150.113 26.6393 149.971 26.6156 149.805 26.6156C149.663 26.6156 149.533 26.6038 149.415 26.5801C149.32 26.5328 149.225 26.5091 149.131 26.5091C149.06 26.5328 148.965 26.5209 148.847 26.4736C148.657 26.4262 148.468 26.3789 148.278 26.3316C148.113 26.2842 147.935 26.2132 147.746 26.1185C147.13 25.8581 146.61 25.5149 146.183 25.0888C145.781 24.639 145.45 24.1064 145.189 23.4909C145.095 23.2778 145.024 23.0648 144.976 22.8517C144.929 22.615 144.881 22.3783 144.834 22.1415C144.787 21.9995 144.763 21.8693 144.763 21.7509C144.787 21.6089 144.775 21.455 144.728 21.2893C144.704 21.242 144.692 21.1828 144.692 21.1118C144.692 21.0171 144.68 20.9343 144.657 20.8632V20.5081C144.633 20.4135 144.621 20.3069 144.621 20.1886C144.645 20.0465 144.657 19.9163 144.657 19.798V18.3776V11.8441V9.5715C144.657 9.35845 144.657 9.1454 144.657 8.93235C144.657 8.7193 144.704 8.54175 144.799 8.39972C144.893 8.23401 145.071 8.11565 145.331 8.04463C145.379 8.02096 145.426 8.02096 145.473 8.04463C145.521 8.04463 145.568 8.0328 145.615 8.00912Z" fill="#FAF6F0"/>
<path d="M138.037 2.46991C138.392 2.46991 138.747 2.48175 139.102 2.50542C139.457 2.50542 139.706 2.60011 139.848 2.78949C139.966 2.93152 140.025 3.13274 140.025 3.39313C140.049 3.62986 140.061 3.87842 140.061 4.13881V6.19831C140.061 6.38769 140.049 6.58891 140.025 6.80196C140.025 6.99134 140.049 7.15704 140.096 7.29908C140.191 7.63049 140.404 7.84354 140.735 7.93823C140.854 7.96191 140.96 7.97374 141.055 7.97374C141.173 7.97374 141.292 7.97374 141.41 7.97374C141.67 7.97374 141.99 7.97374 142.369 7.97374C142.748 7.95007 143.02 7.97374 143.186 8.04476C143.399 8.18679 143.541 8.32883 143.612 8.47086C143.659 8.56555 143.683 8.67208 143.683 8.79044C143.683 8.9088 143.683 9.02716 143.683 9.14552C143.683 9.40592 143.671 9.65448 143.647 9.8912C143.623 10.1043 143.541 10.27 143.399 10.3883C143.257 10.5067 143.055 10.5777 142.795 10.6014C142.558 10.6014 142.298 10.6014 142.014 10.6014C141.753 10.5777 141.493 10.5659 141.233 10.5659C140.972 10.5659 140.747 10.6014 140.558 10.6724C140.392 10.7434 140.274 10.8618 140.203 11.0275C140.132 11.1932 140.084 11.3944 140.061 11.6311C140.037 11.8442 140.025 12.0809 140.025 12.3413C140.049 12.578 140.061 12.8147 140.061 13.0515V20.0822C140.061 20.603 140.049 21.1593 140.025 21.7511C140.025 22.3192 140.132 22.7571 140.345 23.0649C140.463 23.2543 140.617 23.3845 140.806 23.4555C140.996 23.5265 141.221 23.5857 141.481 23.633C141.552 23.6567 141.623 23.6685 141.694 23.6685C141.789 23.6449 141.872 23.6449 141.943 23.6685H142.404C142.641 23.6685 142.854 23.6922 143.043 23.7396C143.257 23.7632 143.41 23.8461 143.505 23.9881C143.552 24.0591 143.588 24.1893 143.612 24.3787C143.659 24.5444 143.683 24.722 143.683 24.9113C143.706 25.1007 143.706 25.2901 143.683 25.4795C143.659 25.6452 143.612 25.7754 143.541 25.8701C143.446 26.0358 143.268 26.1541 143.008 26.2252C142.819 26.2725 142.606 26.2962 142.369 26.2962C142.132 26.2725 141.919 26.2607 141.73 26.2607C141.588 26.2607 141.446 26.2725 141.304 26.2962C141.162 26.2962 141.031 26.2843 140.913 26.2607H140.487C140.369 26.237 140.25 26.2252 140.132 26.2252C140.037 26.2015 139.931 26.1896 139.812 26.1896C139.339 26.0713 138.925 25.9411 138.569 25.799C138.238 25.657 137.954 25.4085 137.717 25.0534C137.386 24.5799 137.196 23.9881 137.149 23.2779C137.102 22.5441 137.078 21.7629 137.078 20.9344V11.6311C137.007 11.3234 136.936 11.0985 136.865 10.9565C136.818 10.8144 136.652 10.6961 136.368 10.6014C136.273 10.5777 136.179 10.5777 136.084 10.6014C135.989 10.625 135.894 10.6132 135.8 10.5659H135.232C134.924 10.5659 134.664 10.5422 134.45 10.4949C134.261 10.4238 134.131 10.2818 134.06 10.0687C134.013 9.97406 133.977 9.86753 133.953 9.74917C133.953 9.63081 133.953 9.51245 133.953 9.39408C133.953 9.06267 133.977 8.79044 134.024 8.57739C134.072 8.34066 134.214 8.16312 134.45 8.04476C134.711 7.95007 135.042 7.92639 135.445 7.97374C135.871 8.02108 136.226 7.99741 136.51 7.90272C136.723 7.78436 136.889 7.61865 137.007 7.4056C137.054 7.26357 137.078 7.08603 137.078 6.87297C137.078 6.65992 137.078 6.45871 137.078 6.26933V4.0678C137.078 3.87842 137.078 3.68904 137.078 3.49966C137.078 3.28661 137.102 3.10906 137.149 2.96703C137.244 2.77765 137.421 2.62378 137.682 2.50542C137.753 2.50542 137.812 2.50542 137.859 2.50542C137.93 2.48175 137.989 2.46991 138.037 2.46991Z" fill="#FAF6F0"/>
<path d="M126.284 7.58295C127.988 7.55928 129.42 7.7605 130.58 8.1866C131.74 8.58903 132.64 9.31104 133.279 10.3526C133.444 10.613 133.575 10.8853 133.669 11.1693C133.764 11.4297 133.859 11.7256 133.953 12.057C134.001 12.2227 134.012 12.4003 133.989 12.5897C133.965 12.7554 133.93 12.8856 133.882 12.9803C133.835 13.0276 133.776 13.0749 133.705 13.1223C133.634 13.146 133.575 13.1815 133.527 13.2288C133.409 13.2762 133.29 13.288 133.172 13.2643C133.054 13.2407 132.935 13.2407 132.817 13.2643C132.628 13.3117 132.379 13.3235 132.071 13.2998C131.764 13.2525 131.551 13.1933 131.432 13.1223C131.243 13.0039 131.113 12.8501 131.042 12.6607C130.994 12.4476 130.911 12.2464 130.793 12.057C130.58 11.6783 130.284 11.335 129.905 11.0273C129.645 10.8379 129.361 10.6959 129.053 10.6012C128.745 10.5065 128.414 10.4118 128.059 10.3171C127.941 10.2698 127.822 10.2579 127.704 10.2816C127.586 10.2816 127.467 10.2698 127.349 10.2461C127.207 10.1988 127.029 10.1751 126.816 10.1751C126.603 10.1751 126.426 10.1988 126.284 10.2461H126.07C125.952 10.2698 125.834 10.2934 125.715 10.3171C125.597 10.3171 125.479 10.329 125.36 10.3526C124.745 10.4947 124.236 10.6959 123.833 10.9563C123.431 11.2167 123.159 11.6546 123.017 12.2701C122.969 12.4358 122.958 12.6015 122.981 12.7672C123.029 12.9329 123.076 13.0749 123.123 13.1933C123.265 13.5484 123.431 13.8088 123.62 13.9745C123.833 14.1165 124.094 14.2822 124.402 14.4716C124.78 14.7083 125.206 14.8859 125.68 15.0042C126.153 15.0989 126.627 15.2173 127.1 15.3593C127.408 15.454 127.716 15.525 128.023 15.5724C128.331 15.6197 128.639 15.6907 128.947 15.7854C129.444 15.9275 129.929 16.0695 130.402 16.2115C130.876 16.3299 131.349 16.4838 131.823 16.6732C131.941 16.7205 132.06 16.7678 132.178 16.8152C132.296 16.8625 132.415 16.9217 132.533 16.9927C133.006 17.2768 133.421 17.5964 133.776 17.9515C134.131 18.3065 134.427 18.7563 134.663 19.3008C134.711 19.4665 134.758 19.6914 134.806 19.9754C134.853 20.1412 134.877 20.3187 134.877 20.5081C134.9 20.6738 134.912 20.8632 134.912 21.0762V21.4313C134.865 21.597 134.841 21.7627 134.841 21.9284C134.841 22.0941 134.817 22.2598 134.77 22.4255C134.699 22.6859 134.616 22.9345 134.521 23.1712C134.427 23.4079 134.32 23.621 134.202 23.8104C133.823 24.4259 133.338 24.923 132.746 25.3017C132.154 25.6568 131.491 25.9646 130.758 26.225C130.545 26.296 130.32 26.3433 130.083 26.367C129.87 26.4143 129.657 26.4735 129.444 26.5445C129.207 26.5919 128.97 26.6156 128.734 26.6156C128.497 26.6156 128.26 26.6392 128.023 26.6866H127.668C127.55 26.7102 127.384 26.7221 127.171 26.7221C126.958 26.7221 126.792 26.7102 126.674 26.6866H126.284C126.142 26.6392 125.988 26.6156 125.822 26.6156C125.656 26.6392 125.514 26.6274 125.396 26.58C125.277 26.5564 125.124 26.5445 124.934 26.5445C124.745 26.4972 124.555 26.4498 124.366 26.4025C124.2 26.3788 124.023 26.3315 123.833 26.2605C123.1 26.0237 122.46 25.7278 121.916 25.3728C121.372 25.0177 120.898 24.5561 120.496 23.9879C120.283 23.6802 120.105 23.3606 119.963 23.0292C119.821 22.6978 119.691 22.3309 119.572 21.9284C119.525 21.7864 119.501 21.6207 119.501 21.4313C119.525 21.2183 119.561 21.0525 119.608 20.9342C119.679 20.8395 119.797 20.7448 119.963 20.6501C120.081 20.6028 120.247 20.5791 120.46 20.5791C120.673 20.5554 120.886 20.5554 121.099 20.5791C121.312 20.6028 121.514 20.6383 121.703 20.6856C121.916 20.7093 122.058 20.7448 122.129 20.7921C122.295 20.9105 122.401 21.0881 122.449 21.3248C122.52 21.5378 122.603 21.739 122.697 21.9284C122.934 22.4492 123.254 22.8516 123.656 23.1357C123.94 23.3488 124.26 23.5145 124.615 23.6328C124.97 23.7512 125.348 23.8696 125.751 23.9879L126.497 24.0944H126.71C126.875 24.1418 127.088 24.1655 127.349 24.1655C127.633 24.1655 127.87 24.1418 128.059 24.0944C128.225 24.0944 128.355 24.0826 128.45 24.0589C128.592 24.0353 128.734 24.0234 128.876 24.0234C129.018 23.9998 129.148 23.9761 129.266 23.9524C129.953 23.763 130.497 23.5145 130.9 23.2067C131.302 22.899 131.586 22.3782 131.752 21.6444C131.799 21.526 131.811 21.3958 131.787 21.2538C131.764 21.1117 131.74 21.0052 131.716 20.9342C131.598 20.4844 131.432 20.153 131.219 19.9399C131.006 19.7032 130.734 19.4902 130.402 19.3008C130.189 19.1588 129.953 19.0404 129.692 18.9457C129.432 18.851 129.172 18.7563 128.911 18.6616C128.84 18.638 128.769 18.6261 128.698 18.6261C128.651 18.6261 128.592 18.6024 128.521 18.5551C127.716 18.2947 126.875 18.1053 125.999 17.987C125.147 17.8449 124.342 17.62 123.585 17.3123C123.348 17.2176 123.123 17.1348 122.91 17.0637C122.697 16.9927 122.496 16.898 122.307 16.7797C121.857 16.5193 121.443 16.2234 121.064 15.892C120.685 15.5605 120.389 15.1463 120.176 14.6492C120.105 14.4835 120.046 14.3177 119.999 14.152C119.975 13.9863 119.939 13.8088 119.892 13.6194C119.821 13.3353 119.797 13.0158 119.821 12.6607C119.845 12.2819 119.88 11.9623 119.928 11.7019C119.975 11.5836 119.999 11.4889 119.999 11.4179C120.022 11.3232 120.058 11.2285 120.105 11.1338C120.318 10.5893 120.602 10.1159 120.957 9.71347C121.336 9.31104 121.762 8.95595 122.236 8.64821C122.591 8.43516 122.981 8.26945 123.407 8.15109C123.833 8.00906 124.283 7.87886 124.757 7.7605C124.922 7.73682 125.076 7.71315 125.218 7.68948C125.384 7.66581 125.562 7.64213 125.751 7.61846C125.822 7.59479 125.917 7.59479 126.035 7.61846C126.153 7.64213 126.236 7.6303 126.284 7.58295Z" fill="#FAF6F0"/>
</svg>
